<?xml version="1.0" encoding="UTF-8"?>
<!DOCTYPE svg PUBLIC "-//W3C//DTD SVG 1.1//EN" "http://www.w3.org/Graphics/SVG/1.1/DTD/svg11.dtd">
<!-- Creator: CorelDRAW -->
<svg xmlns="http://www.w3.org/2000/svg" xml:space="preserve" width="26.282mm" height="21.695mm" style="shape-rendering:geometricPrecision; text-rendering:geometricPrecision; image-rendering:optimizeQuality; fill-rule:evenodd; clip-rule:evenodd"
viewBox="0 0 26.282 21.695"
 xmlns:xlink="http://www.w3.org/1999/xlink">
 <defs>
  <style type="text/css">
   <![CDATA[
    .fil1 {fill:none}
    .fil0 {fill:white}
   ]]>
  </style>
 </defs>
 <g id="Livello_x0020_1">
  <metadata id="CorelCorpID_0Corel-Layer"/>
  <path class="fil0" d="M21.1893 5.8947l-7.4292 0 -2.1138 -2.1139c-0.2322,-0.2321 -0.5472,-0.3625 -0.8757,-0.3625l-5.6779 0c-1.0258,0 -1.8574,0.8315 -1.8574,1.8573l0 11.1438c0,1.0258 0.8316,1.8573 1.8574,1.8573l16.0966 0c1.0258,0 1.8574,-0.8315 1.8574,-1.8573l0 -8.6674c0,-1.0258 -0.8316,-1.8573 -1.8574,-1.8573zm0 10.5247l-16.0966 0 0 -11.1438 5.4218 0 2.1138 2.1138c0.2322,0.2322 0.5471,0.3626 0.8756,0.3626l7.6854 0 0 8.6674z"/>
  <rect class="fil1" y="-1.90296e-005" width="26.282" height="21.695"/>
 </g>
</svg>
