<?xml version="1.0" encoding="UTF-8"?>
<!DOCTYPE svg PUBLIC "-//W3C//DTD SVG 1.1//EN" "http://www.w3.org/Graphics/SVG/1.1/DTD/svg11.dtd">
<!-- Creator: CorelDRAW -->
<svg xmlns="http://www.w3.org/2000/svg" xml:space="preserve" width="210mm" height="210mm" style="shape-rendering:geometricPrecision; text-rendering:geometricPrecision; image-rendering:optimizeQuality; fill-rule:evenodd; clip-rule:evenodd"
viewBox="0 0 197.633 197.633"
 xmlns:xlink="http://www.w3.org/1999/xlink">
 <defs>
  <style type="text/css">
   <![CDATA[
    .fil0 {fill:white}
   ]]>
  </style>
 </defs>
 <g id="Livello_x0020_1">
  <metadata id="CorelCorpID_0Corel-Layer"/>
  <path class="fil0" d="M176.458 0l-155.283 0c-11.6903,0 -21.175,9.48463 -21.175,21.175l0 155.283c0,11.6903 9.48463,21.175 21.175,21.175l155.283 0c11.6903,0 21.175,-9.48463 21.175,-21.175l0 -155.283c0,-11.6903 -9.48463,-21.175 -21.175,-21.175zm-14.1167 111.169c0,2.91162 -2.38224,5.29376 -5.29376,5.29376l-40.5854 0 0 40.5854c0,2.91162 -2.38224,5.29376 -5.29376,5.29376l-24.7041 0c-2.91162,0 -5.29376,-2.38224 -5.29376,-5.29376l0 -40.5854 -40.5854 0c-2.91162,0 -5.29376,-2.38224 -5.29376,-5.29376l0 -24.7041c0,-2.91162 2.38224,-5.29376 5.29376,-5.29376l40.5854 0 0 -40.5854c0,-2.91162 2.38224,-5.29376 5.29376,-5.29376l24.7041 0c2.91162,0 5.29376,2.38224 5.29376,5.29376l0 40.5854 40.5854 0c2.91162,0 5.29376,2.38224 5.29376,5.29376l0 24.7041z"/>
 </g>
</svg>
